<?xml version="1.0" encoding="UTF-8" standalone="no"?>
<!DOCTYPE svg PUBLIC "-//W3C//DTD SVG 1.1//EN"
 "http://www.w3.org/Graphics/SVG/1.1/DTD/svg11.dtd">
<!-- Generated by graphviz version 2.43.0 (0)
 -->
<!-- Title: %3 Pages: 1 -->
<svg width="1205pt" height="620pt"
 viewBox="0.00 0.00 1205.33 620.00" xmlns="http://www.w3.org/2000/svg" xmlns:xlink="http://www.w3.org/1999/xlink">
<g id="graph0" class="graph" transform="scale(1 1) rotate(0) translate(4 616)">
<title>%3</title>
<polygon fill="white" stroke="transparent" points="-4,4 -4,-616 1201.33,-616 1201.33,4 -4,4"/>
<!-- main -->
<g id="node1" class="node">
<title>main</title>
<ellipse fill="none" stroke="black" cx="421.33" cy="-522" rx="33.6" ry="18"/>
<text text-anchor="middle" x="421.33" y="-518.3" font-family="Times,serif" font-size="14.00">main</text>
</g>
<!-- sound -->
<g id="node2" class="node">
<title>sound</title>
<ellipse fill="none" stroke="black" cx="663.33" cy="-450" rx="38.19" ry="18"/>
<text text-anchor="middle" x="663.33" y="-446.3" font-family="Times,serif" font-size="14.00">sound</text>
</g>
<!-- main&#45;&gt;sound -->
<g id="edge1" class="edge">
<title>main&#45;&gt;sound</title>
<path fill="none" stroke="black" d="M449.18,-511.56C491.2,-498.68 570.76,-475.64 620.26,-461.99"/>
<polygon fill="black" stroke="black" points="621.32,-465.33 630.04,-459.31 619.47,-458.58 621.32,-465.33"/>
</g>
<!-- packs -->
<g id="node3" class="node">
<title>packs</title>
<ellipse fill="none" stroke="black" cx="294.33" cy="-306" rx="37.09" ry="18"/>
<text text-anchor="middle" x="294.33" y="-302.3" font-family="Times,serif" font-size="14.00">packs</text>
</g>
<!-- main&#45;&gt;packs -->
<g id="edge2" class="edge">
<title>main&#45;&gt;packs</title>
<path fill="none" stroke="black" d="M396.14,-509.89C382.3,-499.6 367.78,-483.59 357.33,-468 327.62,-423.67 301.55,-366.95 292.77,-334.03"/>
<polygon fill="black" stroke="black" points="296.17,-333.2 290.55,-324.22 289.35,-334.74 296.17,-333.2"/>
</g>
<!-- metadata -->
<g id="node4" class="node">
<title>metadata</title>
<ellipse fill="none" stroke="black" cx="140.33" cy="-234" rx="54.69" ry="18"/>
<text text-anchor="middle" x="140.33" y="-230.3" font-family="Times,serif" font-size="14.00">metadata</text>
</g>
<!-- main&#45;&gt;metadata -->
<g id="edge3" class="edge">
<title>main&#45;&gt;metadata</title>
<path fill="none" stroke="black" d="M401.24,-507.31C386.81,-497.12 367.18,-482.52 351.33,-468 274.77,-397.88 195.48,-303.31 159.79,-259.35"/>
<polygon fill="black" stroke="black" points="162.46,-257.07 153.45,-251.5 157.01,-261.47 162.46,-257.07"/>
</g>
<!-- loadrom -->
<g id="node5" class="node">
<title>loadrom</title>
<ellipse fill="none" stroke="black" cx="396.33" cy="-162" rx="48.99" ry="18"/>
<text text-anchor="middle" x="396.33" y="-158.3" font-family="Times,serif" font-size="14.00">loadrom</text>
</g>
<!-- main&#45;&gt;loadrom -->
<g id="edge4" class="edge">
<title>main&#45;&gt;loadrom</title>
<path fill="none" stroke="black" d="M413.52,-504.46C403.92,-470.68 391.58,-391.27 387.33,-324 384.35,-276.88 385.3,-221.85 388.88,-189.86"/>
<polygon fill="black" stroke="black" points="392.35,-190.32 390.19,-179.94 385.41,-189.4 392.35,-190.32"/>
</g>
<!-- brr -->
<g id="node6" class="node">
<title>brr</title>
<ellipse fill="none" stroke="black" cx="1121.33" cy="-18" rx="27" ry="18"/>
<text text-anchor="middle" x="1121.33" y="-14.3" font-family="Times,serif" font-size="14.00">brr</text>
</g>
<!-- main&#45;&gt;brr -->
<g id="edge5" class="edge">
<title>main&#45;&gt;brr</title>
<path fill="none" stroke="black" d="M455.29,-520.9C559.04,-520.1 870.11,-513.83 958.33,-468 1114.84,-386.69 1123.8,-130.59 1122.35,-46.24"/>
<polygon fill="black" stroke="black" points="1125.85,-46.08 1122.11,-36.16 1118.85,-46.25 1125.85,-46.08"/>
</g>
<!-- sound&#45;&gt;main -->
<g id="edge8" class="edge">
<title>sound&#45;&gt;main</title>
<path fill="none" stroke="black" d="M632.82,-461.26C589.28,-474.55 509.61,-497.59 461.39,-510.84"/>
<polygon fill="black" stroke="black" points="460.33,-507.5 451.6,-513.51 462.17,-514.25 460.33,-507.5"/>
</g>
<!-- id -->
<g id="node7" class="node">
<title>id</title>
<ellipse fill="none" stroke="black" cx="579.33" cy="-90" rx="27" ry="18"/>
<text text-anchor="middle" x="579.33" y="-86.3" font-family="Times,serif" font-size="14.00">id</text>
</g>
<!-- sound&#45;&gt;id -->
<g id="edge6" class="edge">
<title>sound&#45;&gt;id</title>
<path fill="none" stroke="black" d="M679.8,-433.52C688.95,-423.75 699.44,-410.31 704.33,-396 730.19,-320.3 734.95,-289.91 704.33,-216 684.77,-168.77 637.75,-130.09 607.28,-108.82"/>
<polygon fill="black" stroke="black" points="609.02,-105.77 598.78,-103.04 605.08,-111.56 609.02,-105.77"/>
</g>
<!-- tracker -->
<g id="node8" class="node">
<title>tracker</title>
<ellipse fill="none" stroke="black" cx="631.33" cy="-378" rx="44.39" ry="18"/>
<text text-anchor="middle" x="631.33" y="-374.3" font-family="Times,serif" font-size="14.00">tracker</text>
</g>
<!-- sound&#45;&gt;tracker -->
<g id="edge7" class="edge">
<title>sound&#45;&gt;tracker</title>
<path fill="none" stroke="black" d="M650.11,-432.76C645.52,-424.7 640.71,-414.74 636.92,-405.6"/>
<polygon fill="black" stroke="black" points="640.13,-404.19 633.26,-396.12 633.6,-406.71 640.13,-404.19"/>
</g>
<!-- packs&#45;&gt;main -->
<g id="edge14" class="edge">
<title>packs&#45;&gt;main</title>
<path fill="none" stroke="black" d="M301.11,-323.74C313.65,-353.85 342.23,-418.62 375.33,-468 382.36,-478.49 391.24,-489.17 399.32,-498.17"/>
<polygon fill="black" stroke="black" points="396.8,-500.61 406.14,-505.6 401.95,-495.87 396.8,-500.61"/>
</g>
<!-- packs&#45;&gt;main -->
<g id="edge44" class="edge">
<title>packs&#45;&gt;main</title>
<path fill="none" stroke="black" d="M310.81,-322.34C330.74,-351.8 359.71,-417.84 393.33,-468 399.67,-477.46 407.52,-487.09 414.05,-495.49"/>
<polygon fill="black" stroke="black" points="411.45,-497.86 420.26,-503.74 417.05,-493.65 411.45,-497.86"/>
</g>
<!-- packs&#45;&gt;metadata -->
<g id="edge11" class="edge">
<title>packs&#45;&gt;metadata</title>
<path fill="none" stroke="black" d="M265.93,-294.37C240.65,-283.73 203.76,-267.12 176.42,-254.18"/>
<polygon fill="black" stroke="black" points="177.72,-250.92 167.19,-249.77 174.7,-257.23 177.72,-250.92"/>
</g>
<!-- packs&#45;&gt;metadata -->
<g id="edge41" class="edge">
<title>packs&#45;&gt;metadata</title>
<path fill="none" stroke="black" d="M270.78,-291.83C247.65,-280.59 212.06,-264.34 183.83,-252.09"/>
<polygon fill="black" stroke="black" points="185.14,-248.85 174.57,-248.11 182.37,-255.28 185.14,-248.85"/>
</g>
<!-- packs&#45;&gt;loadrom -->
<g id="edge12" class="edge">
<title>packs&#45;&gt;loadrom</title>
<path fill="none" stroke="black" d="M297.47,-287.87C310.38,-262.38 344.47,-214.43 369.6,-185.94"/>
<polygon fill="black" stroke="black" points="372.28,-188.2 376.43,-178.45 367.11,-183.48 372.28,-188.2"/>
</g>
<!-- packs&#45;&gt;loadrom -->
<g id="edge42" class="edge">
<title>packs&#45;&gt;loadrom</title>
<path fill="none" stroke="black" d="M313.48,-290.34C336.37,-266.42 371.34,-218.71 388.4,-188.96"/>
<polygon fill="black" stroke="black" points="391.57,-190.45 393.27,-179.99 385.42,-187.11 391.57,-190.45"/>
</g>
<!-- ranges -->
<g id="node9" class="node">
<title>ranges</title>
<ellipse fill="none" stroke="black" cx="288.33" cy="-90" rx="42.49" ry="18"/>
<text text-anchor="middle" x="288.33" y="-86.3" font-family="Times,serif" font-size="14.00">ranges</text>
</g>
<!-- packs&#45;&gt;ranges -->
<g id="edge9" class="edge">
<title>packs&#45;&gt;ranges</title>
<path fill="none" stroke="black" d="M289.97,-287.85C285.4,-250.83 282.67,-163.18 284.41,-118.39"/>
<polygon fill="black" stroke="black" points="287.91,-118.4 284.93,-108.23 280.92,-118.04 287.91,-118.4"/>
</g>
<!-- packs&#45;&gt;ranges -->
<g id="edge39" class="edge">
<title>packs&#45;&gt;ranges</title>
<path fill="none" stroke="black" d="M297.73,-287.85C300.23,-250.74 298.03,-162.75 293.76,-118.05"/>
<polygon fill="black" stroke="black" points="297.22,-117.5 292.66,-107.94 290.26,-118.25 297.22,-117.5"/>
</g>
<!-- misc -->
<g id="node10" class="node">
<title>misc</title>
<ellipse fill="none" stroke="black" cx="288.33" cy="-18" rx="32.49" ry="18"/>
<text text-anchor="middle" x="288.33" y="-14.3" font-family="Times,serif" font-size="14.00">misc</text>
</g>
<!-- packs&#45;&gt;misc -->
<g id="edge10" class="edge">
<title>packs&#45;&gt;misc</title>
<path fill="none" stroke="black" d="M279.44,-289.26C251.09,-250.98 196.73,-150.41 228.33,-72 233.94,-58.09 245.14,-45.78 256.49,-36.54"/>
<polygon fill="black" stroke="black" points="258.81,-39.17 264.7,-30.37 254.61,-33.58 258.81,-39.17"/>
</g>
<!-- packs&#45;&gt;misc -->
<g id="edge40" class="edge">
<title>packs&#45;&gt;misc</title>
<path fill="none" stroke="black" d="M287.88,-288.11C268.03,-249 215.04,-149.64 246.33,-72 250.94,-60.57 259.31,-50.23 267.48,-41.78"/>
<polygon fill="black" stroke="black" points="270.14,-44.08 274.81,-34.58 265.23,-39.09 270.14,-44.08"/>
</g>
<!-- play -->
<g id="node11" class="node">
<title>play</title>
<ellipse fill="none" stroke="black" cx="969.33" cy="-90" rx="30.59" ry="18"/>
<text text-anchor="middle" x="969.33" y="-86.3" font-family="Times,serif" font-size="14.00">play</text>
</g>
<!-- packs&#45;&gt;play -->
<g id="edge13" class="edge">
<title>packs&#45;&gt;play</title>
<path fill="none" stroke="black" d="M327.23,-297.68C345.02,-294.49 367.25,-290.85 387.33,-288 523.79,-268.67 565.84,-299.17 695.33,-252 777.33,-222.13 784.15,-188.33 859.33,-144 883.7,-129.63 912.32,-114.79 934.43,-104.49"/>
<polygon fill="black" stroke="black" points="936.13,-107.56 943.78,-100.22 933.23,-101.19 936.13,-107.56"/>
</g>
<!-- packs&#45;&gt;play -->
<g id="edge43" class="edge">
<title>packs&#45;&gt;play</title>
<path fill="none" stroke="black" d="M329.45,-300.02C351.47,-296.42 380.09,-291.58 405.33,-288 541.79,-268.67 583.84,-299.17 713.33,-252 795.33,-222.13 802.15,-188.33 877.33,-144 898.49,-131.52 922.86,-118.69 941.33,-108.78"/>
<polygon fill="black" stroke="black" points="943.01,-111.86 950.15,-104.03 939.68,-105.69 943.01,-111.86"/>
</g>
<!-- metadata&#45;&gt;loadrom -->
<g id="edge16" class="edge">
<title>metadata&#45;&gt;loadrom</title>
<path fill="none" stroke="black" d="M180.89,-221.91C226.44,-209.46 300.27,-189.27 348.56,-176.06"/>
<polygon fill="black" stroke="black" points="349.74,-179.37 358.46,-173.36 347.89,-172.62 349.74,-179.37"/>
</g>
<!-- metadata&#45;&gt;ranges -->
<g id="edge15" class="edge">
<title>metadata&#45;&gt;ranges</title>
<path fill="none" stroke="black" d="M166,-218.02C181.68,-208.24 201.66,-194.6 217.33,-180 238.18,-160.57 258.06,-134.8 271.46,-115.99"/>
<polygon fill="black" stroke="black" points="274.44,-117.83 277.31,-107.63 268.71,-113.82 274.44,-117.83"/>
</g>
<!-- loadrom&#45;&gt;main -->
<g id="edge22" class="edge">
<title>loadrom&#45;&gt;main</title>
<path fill="none" stroke="black" d="M401.06,-179.94C403.57,-209.31 402.02,-271.56 405.33,-324 409.18,-384.91 419.66,-455.78 422.78,-493.71"/>
<polygon fill="black" stroke="black" points="419.31,-494.2 423.48,-503.94 426.29,-493.73 419.31,-494.2"/>
</g>
<!-- loadrom&#45;&gt;sound -->
<g id="edge17" class="edge">
<title>loadrom&#45;&gt;sound</title>
<path fill="none" stroke="black" d="M424.16,-176.92C441.33,-186.4 463.09,-200.08 479.33,-216 506.79,-242.93 508.4,-254.52 527.33,-288 553.46,-334.21 543.04,-356.35 578.33,-396 591.79,-411.13 610.59,-423.46 627.09,-432.41"/>
<polygon fill="black" stroke="black" points="625.48,-435.52 635.97,-437.03 628.71,-429.31 625.48,-435.52"/>
</g>
<!-- loadrom&#45;&gt;packs -->
<g id="edge20" class="edge">
<title>loadrom&#45;&gt;packs</title>
<path fill="none" stroke="black" d="M384.45,-179.54C366.61,-204.38 332.77,-251.48 312.02,-280.37"/>
<polygon fill="black" stroke="black" points="309.02,-278.55 306.03,-288.71 314.71,-282.63 309.02,-278.55"/>
</g>
<!-- loadrom&#45;&gt;id -->
<g id="edge18" class="edge">
<title>loadrom&#45;&gt;id</title>
<path fill="none" stroke="black" d="M429.05,-148.49C462.31,-135.76 513.54,-116.17 546.75,-103.46"/>
<polygon fill="black" stroke="black" points="548.35,-106.6 556.44,-99.76 545.85,-100.06 548.35,-106.6"/>
</g>
<!-- loadrom&#45;&gt;ranges -->
<g id="edge19" class="edge">
<title>loadrom&#45;&gt;ranges</title>
<path fill="none" stroke="black" d="M373.16,-145.98C357.43,-135.79 336.46,-122.19 319.3,-111.07"/>
<polygon fill="black" stroke="black" points="321.02,-108.01 310.72,-105.51 317.21,-113.89 321.02,-108.01"/>
</g>
<!-- loadrom&#45;&gt;play -->
<g id="edge21" class="edge">
<title>loadrom&#45;&gt;play</title>
<path fill="none" stroke="black" d="M444.47,-158.81C535.82,-154.04 740.28,-140.43 909.33,-108 917.26,-106.48 925.65,-104.4 933.57,-102.22"/>
<polygon fill="black" stroke="black" points="934.63,-105.56 943.28,-99.44 932.7,-98.83 934.63,-105.56"/>
</g>
<!-- brr&#45;&gt;play -->
<g id="edge23" class="edge">
<title>brr&#45;&gt;play</title>
<path fill="none" stroke="black" d="M1101.28,-30.62C1076.42,-42.99 1034.03,-62.55 1003.92,-75.58"/>
<polygon fill="black" stroke="black" points="1002.44,-72.41 994.62,-79.56 1005.19,-78.84 1002.44,-72.41"/>
</g>
<!-- tracker&#45;&gt;main -->
<g id="edge32" class="edge">
<title>tracker&#45;&gt;main</title>
<path fill="none" stroke="black" d="M607.32,-393.18C589.91,-403.61 565.91,-418.29 545.33,-432 511.39,-454.6 473.46,-482.18 448.59,-500.59"/>
<polygon fill="black" stroke="black" points="446.31,-497.93 440.37,-506.7 450.48,-503.55 446.31,-497.93"/>
</g>
<!-- tracker&#45;&gt;sound -->
<g id="edge25" class="edge">
<title>tracker&#45;&gt;sound</title>
<path fill="none" stroke="black" d="M644.77,-395.62C649.25,-403.53 653.91,-413.17 657.61,-422.08"/>
<polygon fill="black" stroke="black" points="654.46,-423.64 661.34,-431.7 660.99,-421.11 654.46,-423.64"/>
</g>
<!-- tracker&#45;&gt;packs -->
<g id="edge28" class="edge">
<title>tracker&#45;&gt;packs</title>
<path fill="none" stroke="black" d="M593,-369.04C529.96,-355.94 404.75,-329.94 338.24,-316.12"/>
<polygon fill="black" stroke="black" points="338.59,-312.62 328.08,-314.01 337.16,-319.47 338.59,-312.62"/>
</g>
<!-- tracker&#45;&gt;loadrom -->
<g id="edge29" class="edge">
<title>tracker&#45;&gt;loadrom</title>
<path fill="none" stroke="black" d="M623.33,-360.13C607.35,-328.06 568.57,-257.76 517.33,-216 495.69,-198.36 467.27,-185.52 443.41,-176.89"/>
<polygon fill="black" stroke="black" points="444.44,-173.54 433.84,-173.57 442.14,-180.15 444.44,-173.54"/>
</g>
<!-- tracker&#45;&gt;id -->
<g id="edge24" class="edge">
<title>tracker&#45;&gt;id</title>
<path fill="none" stroke="black" d="M626.69,-359.95C618.08,-328.28 600.35,-262.64 598.33,-252 589.49,-205.5 584.07,-150.61 581.39,-118.43"/>
<polygon fill="black" stroke="black" points="584.84,-117.73 580.55,-108.04 577.86,-118.29 584.84,-117.73"/>
</g>
<!-- song -->
<g id="node12" class="node">
<title>song</title>
<ellipse fill="none" stroke="black" cx="909.33" cy="-162" rx="32.49" ry="18"/>
<text text-anchor="middle" x="909.33" y="-158.3" font-family="Times,serif" font-size="14.00">song</text>
</g>
<!-- tracker&#45;&gt;song -->
<g id="edge26" class="edge">
<title>tracker&#45;&gt;song</title>
<path fill="none" stroke="black" d="M665.05,-366.26C690.94,-357.16 726.96,-342.64 755.33,-324 813.45,-285.83 865.88,-221.88 891.96,-187.17"/>
<polygon fill="black" stroke="black" points="894.86,-189.13 898,-179.01 889.24,-184.96 894.86,-189.13"/>
</g>
<!-- songed -->
<g id="node13" class="node">
<title>songed</title>
<ellipse fill="none" stroke="black" cx="651.33" cy="-234" rx="44.39" ry="18"/>
<text text-anchor="middle" x="651.33" y="-230.3" font-family="Times,serif" font-size="14.00">songed</text>
</g>
<!-- tracker&#45;&gt;songed -->
<g id="edge27" class="edge">
<title>tracker&#45;&gt;songed</title>
<path fill="none" stroke="black" d="M634.9,-359.87C636.97,-349.52 639.52,-336.04 641.33,-324 644.43,-303.37 647.03,-279.92 648.8,-262.27"/>
<polygon fill="black" stroke="black" points="652.3,-262.4 649.79,-252.11 645.34,-261.72 652.3,-262.4"/>
</g>
<!-- parser -->
<g id="node14" class="node">
<title>parser</title>
<ellipse fill="none" stroke="black" cx="814.33" cy="-18" rx="40.89" ry="18"/>
<text text-anchor="middle" x="814.33" y="-14.3" font-family="Times,serif" font-size="14.00">parser</text>
</g>
<!-- tracker&#45;&gt;parser -->
<g id="edge30" class="edge">
<title>tracker&#45;&gt;parser</title>
<path fill="none" stroke="black" d="M641.73,-360.28C656.33,-336.55 683.48,-291.58 704.33,-252 743.11,-178.38 783.61,-88.73 802.86,-45.22"/>
<polygon fill="black" stroke="black" points="806.13,-46.48 806.96,-35.92 799.72,-43.65 806.13,-46.48"/>
</g>
<!-- ctrltbl -->
<g id="node15" class="node">
<title>ctrltbl</title>
<ellipse fill="none" stroke="black" cx="445.33" cy="-306" rx="39.79" ry="18"/>
<text text-anchor="middle" x="445.33" y="-302.3" font-family="Times,serif" font-size="14.00">ctrltbl</text>
</g>
<!-- tracker&#45;&gt;ctrltbl -->
<g id="edge31" class="edge">
<title>tracker&#45;&gt;ctrltbl</title>
<path fill="none" stroke="black" d="M599.78,-365.13C567.99,-353.16 518.86,-334.67 484.57,-321.77"/>
<polygon fill="black" stroke="black" points="485.48,-318.37 474.89,-318.12 483.01,-324.92 485.48,-318.37"/>
</g>
<!-- ranges&#45;&gt;misc -->
<g id="edge33" class="edge">
<title>ranges&#45;&gt;misc</title>
<path fill="none" stroke="black" d="M288.33,-71.7C288.33,-63.98 288.33,-54.71 288.33,-46.11"/>
<polygon fill="black" stroke="black" points="291.83,-46.1 288.33,-36.1 284.83,-46.1 291.83,-46.1"/>
</g>
<!-- misc&#45;&gt;main -->
<g id="edge34" class="edge">
<title>misc&#45;&gt;main</title>
<path fill="none" stroke="black" d="M320.6,-21.1C396.83,-26.49 585.85,-42.52 641.33,-72 765.49,-137.98 855.33,-164.39 855.33,-305 855.33,-379 855.33,-379 855.33,-379 855.33,-460.7 574.03,-502.89 464.37,-516.23"/>
<polygon fill="black" stroke="black" points="463.82,-512.77 454.31,-517.43 464.65,-519.72 463.82,-512.77"/>
</g>
<!-- play&#45;&gt;main -->
<g id="edge38" class="edge">
<title>play&#45;&gt;main</title>
<path fill="none" stroke="black" d="M976.84,-107.66C987.91,-133.8 1007.33,-186.3 1007.33,-233 1007.33,-379 1007.33,-379 1007.33,-379 1007.33,-438.83 961.07,-443.85 906.33,-468 827.76,-502.67 569.34,-515.67 465.3,-519.58"/>
<polygon fill="black" stroke="black" points="465.01,-516.08 455.14,-519.95 465.26,-523.08 465.01,-516.08"/>
</g>
<!-- play&#45;&gt;sound -->
<g id="edge35" class="edge">
<title>play&#45;&gt;sound</title>
<path fill="none" stroke="black" d="M969.33,-108.05C969.33,-134.71 969.33,-187.89 969.33,-233 969.33,-307 969.33,-307 969.33,-307 969.33,-419.14 798.16,-442.97 711.86,-447.86"/>
<polygon fill="black" stroke="black" points="711.59,-444.37 701.78,-448.36 711.94,-451.36 711.59,-444.37"/>
</g>
<!-- play&#45;&gt;brr -->
<g id="edge37" class="edge">
<title>play&#45;&gt;brr</title>
<path fill="none" stroke="black" d="M990.54,-76.81C1016.09,-64.14 1058.92,-44.41 1088.66,-31.59"/>
<polygon fill="black" stroke="black" points="1090.37,-34.67 1098.2,-27.53 1087.63,-28.23 1090.37,-34.67"/>
</g>
<!-- play&#45;&gt;parser -->
<g id="edge36" class="edge">
<title>play&#45;&gt;parser</title>
<path fill="none" stroke="black" d="M945.79,-78.37C920.68,-67.03 880.57,-48.91 851.25,-35.67"/>
<polygon fill="black" stroke="black" points="852.31,-32.31 841.76,-31.39 849.43,-38.69 852.31,-32.31"/>
</g>
<!-- song&#45;&gt;main -->
<g id="edge68" class="edge">
<title>song&#45;&gt;main</title>
<path fill="none" stroke="black" d="M913.68,-179.92C920.09,-206.4 931.33,-259.35 931.33,-305 931.33,-379 931.33,-379 931.33,-379 931.33,-427.21 910.68,-443.21 869.33,-468 801.93,-508.41 564.88,-518.03 465.6,-520.31"/>
<polygon fill="black" stroke="black" points="465.23,-516.81 455.31,-520.53 465.38,-523.81 465.23,-516.81"/>
</g>
<!-- song&#45;&gt;play -->
<g id="edge66" class="edge">
<title>song&#45;&gt;play</title>
<path fill="none" stroke="black" d="M922.65,-145.46C930.49,-136.31 940.57,-124.55 949.35,-114.31"/>
<polygon fill="black" stroke="black" points="952.2,-116.36 956.05,-106.49 946.89,-111.81 952.2,-116.36"/>
</g>
<!-- song&#45;&gt;parser -->
<g id="edge67" class="edge">
<title>song&#45;&gt;parser</title>
<path fill="none" stroke="black" d="M884.69,-149.96C867.66,-141.06 845.88,-126.9 833.33,-108 821.15,-89.65 816.6,-64.89 814.98,-46.15"/>
<polygon fill="black" stroke="black" points="818.48,-45.92 814.35,-36.16 811.49,-46.37 818.48,-45.92"/>
</g>
<!-- songed&#45;&gt;main -->
<g id="edge71" class="edge">
<title>songed&#45;&gt;main</title>
<path fill="none" stroke="black" d="M662.25,-251.95C680.7,-282.96 713.35,-349.87 684.33,-396 681,-401.29 525.96,-472.96 455.52,-505.33"/>
<polygon fill="black" stroke="black" points="453.79,-502.27 446.17,-509.62 456.71,-508.63 453.79,-502.27"/>
</g>
<!-- songed&#45;&gt;misc -->
<g id="edge69" class="edge">
<title>songed&#45;&gt;misc</title>
<path fill="none" stroke="black" d="M653.13,-215.95C655.59,-182.92 655.77,-110.11 615.33,-72 574.97,-33.97 409.86,-23.16 330.85,-20.14"/>
<polygon fill="black" stroke="black" points="330.87,-16.64 320.75,-19.78 330.62,-23.64 330.87,-16.64"/>
</g>
<!-- songed&#45;&gt;parser -->
<g id="edge70" class="edge">
<title>songed&#45;&gt;parser</title>
<path fill="none" stroke="black" d="M657.94,-215.98C670.61,-184.84 700.71,-117.73 741.33,-72 752.85,-59.03 768.06,-47.37 781.62,-38.3"/>
<polygon fill="black" stroke="black" points="783.73,-41.1 790.23,-32.73 779.93,-35.22 783.73,-41.1"/>
</g>
<!-- ctrltbl&#45;&gt;main -->
<g id="edge53" class="edge">
<title>ctrltbl&#45;&gt;main</title>
<path fill="none" stroke="black" d="M443.4,-324.23C439.24,-361.32 429.41,-448.98 424.39,-493.71"/>
<polygon fill="black" stroke="black" points="420.89,-493.52 423.25,-503.85 427.85,-494.3 420.89,-493.52"/>
</g>
<!-- bgmlist -->
<g id="node16" class="node">
<title>bgmlist</title>
<ellipse fill="none" stroke="black" cx="283.33" cy="-594" rx="46.29" ry="18"/>
<text text-anchor="middle" x="283.33" y="-590.3" font-family="Times,serif" font-size="14.00">bgmlist</text>
</g>
<!-- bgmlist&#45;&gt;main -->
<g id="edge52" class="edge">
<title>bgmlist&#45;&gt;main</title>
<path fill="none" stroke="black" d="M310.27,-579.34C332.7,-567.96 364.73,-551.71 388.64,-539.58"/>
<polygon fill="black" stroke="black" points="390.35,-542.64 397.68,-534.99 387.18,-536.4 390.35,-542.64"/>
</g>
<!-- bgmlist&#45;&gt;sound -->
<g id="edge45" class="edge">
<title>bgmlist&#45;&gt;sound</title>
<path fill="none" stroke="black" d="M321.25,-583.5C358.21,-573.87 415.78,-557.87 464.33,-540 523.27,-518.31 589.41,-487.34 628.65,-468.24"/>
<polygon fill="black" stroke="black" points="630.59,-471.19 638.03,-463.65 627.51,-464.9 630.59,-471.19"/>
</g>
<!-- bgmlist&#45;&gt;packs -->
<g id="edge46" class="edge">
<title>bgmlist&#45;&gt;packs</title>
<path fill="none" stroke="black" d="M259.61,-578.48C246.87,-569.23 232.37,-555.98 225.33,-540 205.97,-496.08 213.79,-478.59 225.33,-432 234.73,-394.07 258.71,-355.45 275.76,-331.38"/>
<polygon fill="black" stroke="black" points="278.66,-333.35 281.69,-323.2 272.99,-329.24 278.66,-333.35"/>
</g>
<!-- bgmlist&#45;&gt;metadata -->
<g id="edge47" class="edge">
<title>bgmlist&#45;&gt;metadata</title>
<path fill="none" stroke="black" d="M256.24,-579.37C240.82,-570.25 222.43,-556.85 211.33,-540 152.59,-450.83 142.19,-318.96 140.53,-262.39"/>
<polygon fill="black" stroke="black" points="144.03,-262.04 140.31,-252.12 137.03,-262.19 144.03,-262.04"/>
</g>
<!-- bgmlist&#45;&gt;loadrom -->
<g id="edge48" class="edge">
<title>bgmlist&#45;&gt;loadrom</title>
<path fill="none" stroke="black" d="M258.17,-578.89C243.07,-569.43 224.33,-555.84 211.33,-540 161.84,-479.71 25.88,-275.49 76.33,-216 93.15,-196.17 252.25,-177.37 339.59,-168.43"/>
<polygon fill="black" stroke="black" points="340.01,-171.91 349.61,-167.42 339.31,-164.94 340.01,-171.91"/>
</g>
<!-- bgmlist&#45;&gt;brr -->
<g id="edge51" class="edge">
<title>bgmlist&#45;&gt;brr</title>
<path fill="none" stroke="black" d="M323.71,-584.97C341.34,-581.73 362.29,-578.24 381.33,-576 637.84,-545.88 713.64,-613.16 961.33,-540 1091.66,-501.51 1159.33,-442.9 1159.33,-307 1159.33,-307 1159.33,-307 1159.33,-161 1159.33,-119.41 1143.93,-73.22 1132.74,-45.14"/>
<polygon fill="black" stroke="black" points="1135.88,-43.58 1128.84,-35.66 1129.4,-46.24 1135.88,-43.58"/>
</g>
<!-- bgmlist&#45;&gt;play -->
<g id="edge49" class="edge">
<title>bgmlist&#45;&gt;play</title>
<path fill="none" stroke="black" d="M324.8,-585.68C342.24,-582.63 362.76,-579.09 381.33,-576 531.83,-550.96 960.3,-584.06 1059.33,-468 1080.67,-443 1147.86,-463.42 1009.33,-144 1004.67,-133.26 997.42,-122.7 990.36,-113.87"/>
<polygon fill="black" stroke="black" points="992.85,-111.39 983.74,-105.98 987.48,-115.89 992.85,-111.39"/>
</g>
<!-- bgmlist&#45;&gt;ctrltbl -->
<g id="edge50" class="edge">
<title>bgmlist&#45;&gt;ctrltbl</title>
<path fill="none" stroke="black" d="M292.98,-575.97C320.34,-527.67 398.53,-389.63 430.96,-332.37"/>
<polygon fill="black" stroke="black" points="434.05,-334.01 435.94,-323.59 427.96,-330.56 434.05,-334.01"/>
</g>
<!-- help -->
<g id="node17" class="node">
<title>help</title>
<ellipse fill="none" stroke="black" cx="421.33" cy="-594" rx="30.59" ry="18"/>
<text text-anchor="middle" x="421.33" y="-590.3" font-family="Times,serif" font-size="14.00">help</text>
</g>
<!-- help&#45;&gt;main -->
<g id="edge54" class="edge">
<title>help&#45;&gt;main</title>
<path fill="none" stroke="black" d="M421.33,-575.7C421.33,-567.98 421.33,-558.71 421.33,-550.11"/>
<polygon fill="black" stroke="black" points="424.83,-550.1 421.33,-540.1 417.83,-550.1 424.83,-550.1"/>
</g>
<!-- inst -->
<g id="node18" class="node">
<title>inst</title>
<ellipse fill="none" stroke="black" cx="840.33" cy="-594" rx="28.7" ry="18"/>
<text text-anchor="middle" x="840.33" y="-590.3" font-family="Times,serif" font-size="14.00">inst</text>
</g>
<!-- inst&#45;&gt;main -->
<g id="edge60" class="edge">
<title>inst&#45;&gt;main</title>
<path fill="none" stroke="black" d="M812.04,-590.89C749.5,-585.8 595.06,-570.92 469.33,-540 465.43,-539.04 461.41,-537.89 457.43,-536.64"/>
<polygon fill="black" stroke="black" points="458.3,-533.24 447.7,-533.4 456.08,-539.88 458.3,-533.24"/>
</g>
<!-- inst&#45;&gt;sound -->
<g id="edge55" class="edge">
<title>inst&#45;&gt;sound</title>
<path fill="none" stroke="black" d="M823.36,-579.38C792.39,-554.54 726.51,-501.69 689.67,-472.13"/>
<polygon fill="black" stroke="black" points="691.83,-469.37 681.84,-465.85 687.45,-474.83 691.83,-469.37"/>
</g>
<!-- inst&#45;&gt;loadrom -->
<g id="edge56" class="edge">
<title>inst&#45;&gt;loadrom</title>
<path fill="none" stroke="black" d="M816.84,-583.62C773.84,-565.67 680.95,-523.32 616.33,-468 583.58,-439.96 576.03,-431.34 551.33,-396 520.24,-351.51 523.86,-333.54 494.33,-288 470.34,-251 438.08,-211.45 417.24,-186.97"/>
<polygon fill="black" stroke="black" points="419.81,-184.59 410.64,-179.27 414.49,-189.14 419.81,-184.59"/>
</g>
<!-- inst&#45;&gt;brr -->
<g id="edge59" class="edge">
<title>inst&#45;&gt;brr</title>
<path fill="none" stroke="black" d="M867.46,-588.29C950.77,-573.05 1197.33,-521.95 1197.33,-451 1197.33,-451 1197.33,-451 1197.33,-161 1197.33,-120.03 1193.67,-107.56 1173.33,-72 1166.26,-59.64 1155.61,-48.08 1145.78,-38.93"/>
<polygon fill="black" stroke="black" points="1147.96,-36.18 1138.17,-32.14 1143.3,-41.4 1147.96,-36.18"/>
</g>
<!-- inst&#45;&gt;play -->
<g id="edge57" class="edge">
<title>inst&#45;&gt;play</title>
<path fill="none" stroke="black" d="M867.99,-589.13C923.13,-579.77 1045.88,-550.23 1097.33,-468 1174.23,-345.09 1146.88,-259.57 1059.33,-144 1045.47,-125.7 1023.3,-112.54 1004.44,-103.91"/>
<polygon fill="black" stroke="black" points="1005.79,-100.68 995.22,-99.92 1003.01,-107.1 1005.79,-100.68"/>
</g>
<!-- inst&#45;&gt;ctrltbl -->
<g id="edge58" class="edge">
<title>inst&#45;&gt;ctrltbl</title>
<path fill="none" stroke="black" d="M812.39,-590.11C753.71,-583.57 620.05,-566.2 583.33,-540 509.91,-487.61 469.03,-382.88 453.15,-333.69"/>
<polygon fill="black" stroke="black" points="456.47,-332.57 450.14,-324.07 449.79,-334.66 456.47,-332.57"/>
</g>
<!-- packlist -->
<g id="node19" class="node">
<title>packlist</title>
<ellipse fill="none" stroke="black" cx="49.33" cy="-594" rx="46.59" ry="18"/>
<text text-anchor="middle" x="49.33" y="-590.3" font-family="Times,serif" font-size="14.00">packlist</text>
</g>
<!-- packlist&#45;&gt;main -->
<g id="edge65" class="edge">
<title>packlist&#45;&gt;main</title>
<path fill="none" stroke="black" d="M90.56,-585.24C162.05,-571.79 308.21,-544.29 379.87,-530.8"/>
<polygon fill="black" stroke="black" points="380.7,-534.21 389.88,-528.92 379.4,-527.33 380.7,-534.21"/>
</g>
<!-- packlist&#45;&gt;metadata -->
<g id="edge62" class="edge">
<title>packlist&#45;&gt;metadata</title>
<path fill="none" stroke="black" d="M43.16,-575.89C37.51,-557.93 30.66,-528.9 35.33,-504 52.89,-410.42 102.18,-307.64 126.46,-260.81"/>
<polygon fill="black" stroke="black" points="129.56,-262.44 131.11,-251.95 123.36,-259.19 129.56,-262.44"/>
</g>
<!-- packlist&#45;&gt;loadrom -->
<g id="edge63" class="edge">
<title>packlist&#45;&gt;loadrom</title>
<path fill="none" stroke="black" d="M47.15,-575.94C39.07,-509.62 13.68,-270.02 61.33,-216 79.48,-195.43 248.66,-176.73 339.42,-168.07"/>
<polygon fill="black" stroke="black" points="339.92,-171.54 349.55,-167.11 339.26,-164.57 339.92,-171.54"/>
</g>
<!-- packlist&#45;&gt;ranges -->
<g id="edge61" class="edge">
<title>packlist&#45;&gt;ranges</title>
<path fill="none" stroke="black" d="M42.49,-575.9C20.77,-518.6 -40.47,-330.54 41.33,-216 89.15,-149.03 183.5,-115.73 240.74,-101.01"/>
<polygon fill="black" stroke="black" points="241.77,-104.37 250.63,-98.56 240.08,-97.57 241.77,-104.37"/>
</g>
<!-- packlist&#45;&gt;ctrltbl -->
<g id="edge64" class="edge">
<title>packlist&#45;&gt;ctrltbl</title>
<path fill="none" stroke="black" d="M70.34,-577.83C136.55,-530.01 340.9,-382.42 416.67,-327.7"/>
<polygon fill="black" stroke="black" points="418.79,-330.49 424.85,-321.79 414.69,-324.81 418.79,-330.49"/>
</g>
<!-- text -->
<g id="node20" class="node">
<title>text</title>
<ellipse fill="none" stroke="black" cx="871.33" cy="-90" rx="29.5" ry="18"/>
<text text-anchor="middle" x="871.33" y="-86.3" font-family="Times,serif" font-size="14.00">text</text>
</g>
<!-- text&#45;&gt;parser -->
<g id="edge72" class="edge">
<title>text&#45;&gt;parser</title>
<path fill="none" stroke="black" d="M858.68,-73.46C851.51,-64.65 842.37,-53.43 834.25,-43.46"/>
<polygon fill="black" stroke="black" points="836.77,-41.01 827.74,-35.47 831.34,-45.43 836.77,-41.01"/>
</g>
</g>
</svg>
